<?xml version="1.0" encoding="UTF-8"?>
<svg width="15px" height="15px" viewBox="0 0 15 15" version="1.1" xmlns="http://www.w3.org/2000/svg" xmlns:xlink="http://www.w3.org/1999/xlink">
    <title>编组备份 3</title>
    <g id="页面-1" stroke="none" stroke-width="1" fill="none" fill-rule="evenodd">
        <g id="酒店app" transform="translate(-105.000000, -58.000000)" fill="#999999" fill-rule="nonzero">
            <g id="编组备份-3" transform="translate(105.000000, 58.000000)">
                <path d="M11.1631412,10.286449 C11.1946186,10.3084797 11.2254665,10.3330282 11.2531666,10.3619828 L14.8189252,13.9265502 C15.0587829,14.1663701 15.0625602,14.5685878 14.8170366,14.8140727 C14.6998019,14.9326053 14.540142,14.9995169 14.3734142,15 C14.2066864,15.0004621 14.0466496,14.9344567 13.9287446,14.8165905 L10.362986,11.2513937 C10.3354091,11.2238277 10.3105335,11.1936866 10.2886994,11.1613825 C9.16388245,12.0865626 7.7519927,12.5913177 6.29547781,12.5889719 C2.81848542,12.5889719 0,9.77093056 0,6.29448597 C0,2.81804137 2.81848542,0 6.29547781,0 C9.77247021,0 12.5909556,2.81804137 12.5909556,6.29448597 C12.5909556,7.80956874 12.05584,9.20002068 11.1631412,10.286449 Z M6.29547781,11.3300747 C9.07699492,11.3300747 11.3318601,9.07556484 11.3318601,6.29448596 C11.3318601,3.51340707 9.07699492,1.25889719 6.29547781,1.25889719 C3.5139607,1.25889719 1.25909556,3.51340707 1.25909556,6.29448596 C1.25909556,9.07556484 3.5139607,11.3300747 6.29547781,11.3300747 Z" id="形状"></path>
            </g>
        </g>
    </g>
</svg>