<svg width="1928" height="2480" xmlns="http://www.w3.org/2000/svg" xmlns:xlink="http://www.w3.org/1999/xlink" xml:space="preserve" overflow="hidden"><defs><filter id="fx0" x="-10%" y="-10%" width="120%" height="120%" filterUnits="userSpaceOnUse" primitiveUnits="userSpaceOnUse"><feComponentTransfer color-interpolation-filters="sRGB"><feFuncR type="discrete" tableValues="0 0"/><feFuncG type="discrete" tableValues="0 0"/><feFuncB type="discrete" tableValues="0 0"/><feFuncA type="linear" slope="0.4" intercept="0"/></feComponentTransfer><feGaussianBlur stdDeviation="0 0"/></filter><linearGradient x1="3667.96" y1="1220" x2="1740" y2="1220" gradientUnits="userSpaceOnUse" spreadMethod="reflect" id="fill1"><stop offset="0" stop-color="#6055B4"/><stop offset="0.37" stop-color="#6055B4"/><stop offset="0.99" stop-color="#737EEF"/><stop offset="1" stop-color="#737EEF"/></linearGradient></defs><g transform="translate(-1740 20)"><g filter="url(#fx0)" transform="translate(1740 -20)"><g><path d="M0.00012207 321.334C0.00012207 143.866 143.866 6.48499e-05 321.334 6.48499e-05L1606.63 6.48499e-05C1784.1 6.48499e-05 1927.97 143.866 1927.97 321.334L1927.97 2158.67C1927.97 2336.13 1784.1 2480 1606.63 2480L321.334 2480C143.866 2480 0.00012207 2336.13 0.00012207 2158.67Z" fill="#FF0000" fill-rule="evenodd"/></g></g><path d="M1740 301.334C1740 123.866 1883.87-19.9999 2061.33-19.9999L3346.63-19.9999C3524.1-19.9999 3667.97 123.866 3667.97 301.334L3667.97 2138.67C3667.97 2316.13 3524.1 2460 3346.63 2460L2061.33 2460C1883.87 2460 1740 2316.13 1740 2138.67Z" fill="url(#fill1)" fill-rule="evenodd"/></g></svg>