<svg width="1513" height="316" xmlns="http://www.w3.org/2000/svg" xmlns:xlink="http://www.w3.org/1999/xlink" xml:space="preserve" overflow="hidden"><defs><clipPath id="clip0"><rect x="306" y="2006" width="1513" height="316"/></clipPath><linearGradient x1="1819" y1="2164" x2="306" y2="2164" gradientUnits="userSpaceOnUse" spreadMethod="reflect" id="fill1"><stop offset="0" stop-color="#352864"/><stop offset="0.36" stop-color="#43377E"/><stop offset="1" stop-color="#6055B4"/></linearGradient><linearGradient x1="1782" y1="2164" x2="343" y2="2164" gradientUnits="userSpaceOnUse" spreadMethod="reflect" id="fill2"><stop offset="0" stop-color="#44C1FD"/><stop offset="0.77" stop-color="#1FE1C6"/><stop offset="1" stop-color="#1FE1C6"/></linearGradient></defs><g clip-path="url(#clip0)" transform="translate(-306 -2006)"><path d="M306 2164C306 2076.74 376.739 2006 464 2006L1661 2006C1748.26 2006 1819 2076.74 1819 2164L1819 2164C1819 2251.26 1748.26 2322 1661 2322L464 2322C376.739 2322 306 2251.26 306 2164Z" fill="url(#fill1)" fill-rule="evenodd"/><path d="M343 2164C343 2097.73 396.726 2044 463 2044L1662 2044C1728.28 2044 1782 2097.73 1782 2164L1782 2164C1782 2230.28 1728.27 2284 1662 2284L463 2284C396.726 2284 343 2230.27 343 2164Z" fill="url(#fill2)" fill-rule="evenodd"/></g></svg>