<svg width="1808" height="315" xmlns="http://www.w3.org/2000/svg" xmlns:xlink="http://www.w3.org/1999/xlink" xml:space="preserve" overflow="hidden"><defs><clipPath id="clip0"><rect x="125" y="1142" width="1808" height="315"/></clipPath><linearGradient x1="1933" y1="1299.5" x2="125" y2="1299.5" gradientUnits="userSpaceOnUse" spreadMethod="reflect" id="fill1"><stop offset="0" stop-color="#352864"/><stop offset="0.36" stop-color="#43377E"/><stop offset="1" stop-color="#6055B4"/></linearGradient><linearGradient x1="577.001" y1="1302" x2="168" y2="1302" gradientUnits="userSpaceOnUse" spreadMethod="reflect" id="fill2"><stop offset="0" stop-color="#44C1FD"/><stop offset="0.77" stop-color="#1FE1C6"/><stop offset="1" stop-color="#1FE1C6"/></linearGradient></defs><g clip-path="url(#clip0)" transform="translate(-125 -1142)"><path d="M125 1299.5C125 1212.52 195.515 1142 282.5 1142L1775.5 1142C1862.48 1142 1933 1212.52 1933 1299.5L1933 1299.5C1933 1386.48 1862.48 1457 1775.5 1457L282.5 1457C195.515 1457 125 1386.48 125 1299.5Z" fill="url(#fill1)" fill-rule="evenodd"/><path d="M168 1302C168 1235.73 221.726 1182 288 1182L457 1182C523.275 1182 577.001 1235.73 577.001 1302L577 1302C577 1368.27 523.274 1422 457 1422L288 1422C221.726 1422 168 1368.27 168 1302Z" fill="url(#fill2)" fill-rule="evenodd"/><text fill="#FFFFFF" font-family="Swei B2 Sans CJK SC,Swei B2 Sans CJK SC_MSFontService,sans-serif" font-weight="500" font-size="110" transform="matrix(1 0 0 1 244.235 1348)">省份</text></g></svg>