<svg width="2529" height="315" xmlns="http://www.w3.org/2000/svg" xmlns:xlink="http://www.w3.org/1999/xlink" xml:space="preserve" overflow="hidden"><defs><clipPath id="clip0"><rect x="1867" y="714" width="2529" height="315"/></clipPath><linearGradient x1="4305" y1="871.5" x2="1867" y2="871.5" gradientUnits="userSpaceOnUse" spreadMethod="reflect" id="fill1"><stop offset="0" stop-color="#352864"/><stop offset="0.36" stop-color="#43377E"/><stop offset="1" stop-color="#6055B4"/></linearGradient><linearGradient x1="2406" y1="874" x2="1911" y2="874" gradientUnits="userSpaceOnUse" spreadMethod="reflect" id="fill2"><stop offset="0" stop-color="#FF9B8E"/><stop offset="0.77" stop-color="#FF5EBD"/><stop offset="1" stop-color="#FF5EBD"/></linearGradient></defs><g clip-path="url(#clip0)" transform="translate(-1867 -714)"><path d="M1867 871.5C1867 784.515 1937.51 714 2024.5 714L4147.5 714C4234.48 714 4305 784.515 4305 871.5L4305 871.5C4305 958.485 4234.48 1029 4147.5 1029L2024.5 1029C1937.51 1029 1867 958.485 1867 871.5Z" fill="url(#fill1)" fill-rule="evenodd"/><path d="M1911 874C1911 807.726 1964.73 754 2031 754L2286 754C2352.27 754 2406 807.726 2406 874L2406 874C2406 940.274 2352.27 994 2286 994L2031 994C1964.73 994 1911 940.274 1911 874Z" fill="url(#fill2)" fill-rule="evenodd"/><text fill="#FFFFFF" font-family="Swei B2 Sans CJK SC,Swei B2 Sans CJK SC_MSFontService,sans-serif" font-weight="500" font-size="110" transform="matrix(1 0 0 1 1988.48 905)">月工资</text><text fill="#D9D9D9" font-family="Swei B2 Sans CJK SC,Swei B2 Sans CJK SC_MSFontService,sans-serif" font-weight="300" font-size="110" transform="matrix(1 0 0 1 3978.64 910)">元</text><text fill="#D9D9D9" font-family="Swei B2 Sans CJK SC,Swei B2 Sans CJK SC_MSFontService,sans-serif" font-weight="300" font-size="110" transform="matrix(1 0 0 1 4088.64 910)">/</text><text fill="#D9D9D9" font-family="Swei B2 Sans CJK SC,Swei B2 Sans CJK SC_MSFontService,sans-serif" font-weight="300" font-size="110" transform="matrix(1 0 0 1 4132.18 910)">月</text></g></svg>