<svg width="2457" height="315" xmlns="http://www.w3.org/2000/svg" xmlns:xlink="http://www.w3.org/1999/xlink" xml:space="preserve" overflow="hidden"><defs><clipPath id="clip0"><rect x="1867" y="202" width="2457" height="315"/></clipPath><linearGradient x1="4305" y1="359.5" x2="1867" y2="359.5" gradientUnits="userSpaceOnUse" spreadMethod="reflect" id="fill1"><stop offset="0" stop-color="#352864"/><stop offset="0.36" stop-color="#43377E"/><stop offset="1" stop-color="#6055B4"/></linearGradient><linearGradient x1="2306" y1="362.5" x2="1911" y2="362.5" gradientUnits="userSpaceOnUse" spreadMethod="reflect" id="fill2"><stop offset="0" stop-color="#FF9B8E"/><stop offset="0.77" stop-color="#FF5EBD"/><stop offset="1" stop-color="#FF5EBD"/></linearGradient></defs><g clip-path="url(#clip0)" transform="translate(-1867 -202)"><path d="M1867 359.5C1867 272.515 1937.51 202 2024.5 202L4147.5 202C4234.48 202 4305 272.515 4305 359.5L4305 359.5C4305 446.485 4234.48 517 4147.5 517L2024.5 517C1937.51 517 1867 446.485 1867 359.5Z" fill="url(#fill1)" fill-rule="evenodd"/><path d="M1911 362.5C1911 295.95 1964.95 242 2031.5 242L2185.5 242C2252.05 242 2306 295.95 2306 362.5L2306 362.5C2306 429.051 2252.05 483 2185.5 483L2031.5 483C1964.95 483 1911 429.05 1911 362.5Z" fill="url(#fill2)" fill-rule="evenodd"/><text fill="#FFFFFF" font-family="Swei B2 Sans CJK SC,Swei B2 Sans CJK SC_MSFontService,sans-serif" font-weight="500" font-size="110" transform="matrix(1 0 0 1 1988.48 393)">房价</text><text fill="#D9D9D9" font-family="Swei B2 Sans CJK SC,Swei B2 Sans CJK SC_MSFontService,sans-serif" font-weight="300" font-size="110" transform="matrix(1 0 0 1 3883.99 386)">元</text><text fill="#D9D9D9" font-family="Swei B2 Sans CJK SC,Swei B2 Sans CJK SC_MSFontService,sans-serif" font-weight="300" font-size="110" transform="matrix(1 0 0 1 3993.99 386)">/</text><text fill="#D9D9D9" font-family="Swei B2 Sans CJK SC,Swei B2 Sans CJK SC_MSFontService,sans-serif" font-weight="300" font-size="110" transform="matrix(1 0 0 1 4037.53 386)">平米</text></g></svg>