<svg width="2565" height="315" xmlns="http://www.w3.org/2000/svg" xmlns:xlink="http://www.w3.org/1999/xlink" xml:space="preserve" overflow="hidden"><defs><clipPath id="clip0"><rect x="1779" y="1247" width="2565" height="315"/></clipPath><linearGradient x1="4217" y1="1404.5" x2="1779" y2="1404.5" gradientUnits="userSpaceOnUse" spreadMethod="reflect" id="fill1"><stop offset="0" stop-color="#352864"/><stop offset="0.36" stop-color="#43377E"/><stop offset="1" stop-color="#6055B4"/></linearGradient><linearGradient x1="2656" y1="1407.5" x2="1823" y2="1407.5" gradientUnits="userSpaceOnUse" spreadMethod="reflect" id="fill2"><stop offset="0" stop-color="#FF9B8E"/><stop offset="0.77" stop-color="#FF5EBD"/><stop offset="1" stop-color="#FF5EBD"/></linearGradient></defs><g clip-path="url(#clip0)" transform="translate(-1779 -1247)"><path d="M1779 1404.5C1779 1317.52 1849.51 1247 1936.5 1247L4059.5 1247C4146.48 1247 4217 1317.52 4217 1404.5L4217 1404.5C4217 1491.48 4146.48 1562 4059.5 1562L1936.5 1562C1849.51 1562 1779 1491.48 1779 1404.5Z" fill="url(#fill1)" fill-rule="evenodd"/><path d="M1823 1407.5C1823 1340.95 1876.95 1287 1943.5 1287L2535.5 1287C2602.05 1287 2656 1340.95 2656 1407.5L2656 1407.5C2656 1474.05 2602.05 1528 2535.5 1528L1943.5 1528C1876.95 1528 1823 1474.05 1823 1407.5Z" fill="url(#fill2)" fill-rule="evenodd"/><text fill="#FFFFFF" font-family="Swei B2 Sans CJK SC,Swei B2 Sans CJK SC_MSFontService,sans-serif" font-weight="500" font-size="110" transform="matrix(1 0 0 1 1900.59 1438)">计划购房面积</text><text fill="#D9D9D9" font-family="Swei B2 Sans CJK SC,Swei B2 Sans CJK SC_MSFontService,sans-serif" font-weight="300" font-size="110" transform="matrix(1 0 0 1 3926.56 1438)">平米</text></g></svg>