<svg width="2660" height="315" xmlns="http://www.w3.org/2000/svg" xmlns:xlink="http://www.w3.org/1999/xlink" xml:space="preserve" overflow="hidden"><defs><clipPath id="clip0"><rect x="1779" y="1850" width="2660" height="315"/></clipPath><linearGradient x1="4217" y1="2007.5" x2="1779" y2="2007.5" gradientUnits="userSpaceOnUse" spreadMethod="reflect" id="fill1"><stop offset="0" stop-color="#352864"/><stop offset="0.36" stop-color="#43377E"/><stop offset="1" stop-color="#6055B4"/></linearGradient><linearGradient x1="2890" y1="2010" x2="1823" y2="2010" gradientUnits="userSpaceOnUse" spreadMethod="reflect" id="fill2"><stop offset="0" stop-color="#FF9B8E"/><stop offset="0.77" stop-color="#FF5EBD"/><stop offset="1" stop-color="#FF5EBD"/></linearGradient></defs><g clip-path="url(#clip0)" transform="translate(-1779 -1850)"><path d="M1779 2007.5C1779 1920.52 1849.51 1850 1936.5 1850L4059.5 1850C4146.48 1850 4217 1920.52 4217 2007.5L4217 2007.5C4217 2094.48 4146.48 2165 4059.5 2165L1936.5 2165C1849.51 2165 1779 2094.48 1779 2007.5Z" fill="url(#fill1)" fill-rule="evenodd"/><path d="M1823 2010C1823 1943.73 1876.73 1890 1943 1890L2770 1890C2836.28 1890 2890 1943.73 2890 2010L2890 2010C2890 2076.27 2836.27 2130 2770 2130L1943 2130C1876.73 2130 1823 2076.27 1823 2010Z" fill="url(#fill2)" fill-rule="evenodd"/><text fill="#FFFFFF" font-family="Swei B2 Sans CJK SC,Swei B2 Sans CJK SC_MSFontService,sans-serif" font-weight="500" font-size="110" transform="matrix(1 0 0 1 1900.59 2041)">计划开始购房年份</text><text fill="#D9D9D9" font-family="Swei B2 Sans CJK SC,Swei B2 Sans CJK SC_MSFontService,sans-serif" font-weight="300" font-size="110" transform="matrix(1 0 0 1 4021.36 2041)">年</text></g></svg>