<svg width="137" height="136" xmlns="http://www.w3.org/2000/svg" xmlns:xlink="http://www.w3.org/1999/xlink" xml:space="preserve" overflow="hidden"><defs><clipPath id="clip0"><path d="M512.945 360 581.279 427.427 513.852 495.761 445.518 428.334Z" fill-rule="evenodd" clip-rule="evenodd"/></clipPath><clipPath id="clip1"><path d="M512.945 360 581.279 427.427 513.852 495.761 445.518 428.334Z" fill-rule="evenodd" clip-rule="evenodd"/></clipPath><clipPath id="clip2"><path d="M512.945 360 581.279 427.427 513.852 495.761 445.518 428.334Z" fill-rule="evenodd" clip-rule="evenodd"/></clipPath></defs><g transform="translate(-445 -360)"><g clip-path="url(#clip0)"><g clip-path="url(#clip1)"><g clip-path="url(#clip2)"><path d="M557.21 423.345 561.481 427.559 513.72 475.963 465.316 428.202 469.531 423.931 513.663 467.478Z" fill="#FFFFFF"/><path d="M488.55 413.056 505.662 412.941 505.719 421.427 519.86 421.332 519.917 429.817 539.574 429.686 539.614 435.625 514.017 435.796 513.961 427.311 499.819 427.406 499.762 418.921 488.59 418.995 488.646 427.339 477.257 416.101 488.494 404.712Z" fill="#FFFFFF"/></g></g></g></g></svg>