<svg width="96" height="96" xmlns="http://www.w3.org/2000/svg" xmlns:xlink="http://www.w3.org/1999/xlink" xml:space="preserve" overflow="hidden"><g transform="translate(-697 -329)"><path d="M711 394 715 394 715 398 711 398 711 394ZM711 386 715 386 715 390 711 390 711 386ZM711 378 715 378 715 382 711 382 711 378ZM719 394 723 394 723 398 719 398 719 394ZM719 386 723 386 723 390 719 390 719 386ZM719 378 723 378 723 382 719 382 719 378ZM705 408 715 408 715 402 719 402 719 408 729 408 729 372 705 372 705 408Z" fill="#FFFFFF"/><path d="M739 394 743 394 743 398 739 398 739 394ZM739 386 743 386 743 390 739 390 739 386ZM747 394 751 394 751 398 747 398 747 394ZM747 386 751 386 751 390 747 390 747 386ZM733 408 743 408 743 402 747 402 747 408 757 408 757 380 733 380 733 408Z" fill="#FFFFFF"/><path d="M779 359 775 359 775 355 779 355 779 359ZM779 366 775 366 775 362 779 362 779 366ZM779 374 775 374 775 370 779 370 779 374ZM779 382 775 382 775 378 779 378 779 382ZM779 390 775 390 775 386 779 386 779 390ZM779 398 775 398 775 394 779 394 779 398ZM771 359 767 359 767 355 771 355 771 359ZM771 366 767 366 767 362 771 362 771 366ZM771 374 767 374 767 370 771 370 771 374ZM771 382 767 382 767 378 771 378 771 382ZM771 390 767 390 767 386 771 386 771 390ZM771 398 767 398 767 394 771 394 771 398ZM761 348 761 408 771 408 771 402 775 402 775 408 785 408 785 351 761 348Z" fill="#FFFFFF"/><path d="M733 360 737 360 737 364 733 364 733 360ZM733 352 737 352 737 356 733 356 733 352ZM729 356 725 356 725 352 729 352 729 356ZM729 364 725 364 725 360 729 360 729 364ZM733 376 743 376 743 346 719 346 719 368 733 368 733 376Z" fill="#FFFFFF"/></g></svg>